<?xml version="1.0" encoding="UTF-8" standalone="no"?>
<!-- Created with Inkscape (http://www.inkscape.org/) -->

<svg
   width="500"
   height="500"
   viewBox="0 0 132.29166 132.29167"
   version="1.1"
   id="svg27832"
   inkscape:version="1.1.1 (3bf5ae0d25, 2021-09-20)"
   sodipodi:docname="tel.svg"
   xmlns:inkscape="http://www.inkscape.org/namespaces/inkscape"
   xmlns:sodipodi="http://sodipodi.sourceforge.net/DTD/sodipodi-0.dtd"
   xmlns="http://www.w3.org/2000/svg"
   xmlns:svg="http://www.w3.org/2000/svg">
  <sodipodi:namedview
     id="namedview27834"
     pagecolor="#ffffff"
     bordercolor="#666666"
     borderopacity="1.0"
     inkscape:pageshadow="2"
     inkscape:pageopacity="0.0"
     inkscape:pagecheckerboard="0"
     inkscape:document-units="mm"
     showgrid="false"
     units="px"
     inkscape:zoom="1.0482005"
     inkscape:cx="487.02513"
     inkscape:cy="264.73942"
     inkscape:window-width="1280"
     inkscape:window-height="657"
     inkscape:window-x="1912"
     inkscape:window-y="-8"
     inkscape:window-maximized="1"
     inkscape:current-layer="layer1" />
  <defs
     id="defs27829">
    <inkscape:path-effect
       effect="mirror_symmetry"
       start_point="69.427251,41.648759"
       end_point="69.427251,173.94043"
       center_point="69.427251,107.79459"
       id="path-effect28131"
       is_visible="true"
       lpeversion="1.1"
       mode="vertical"
       discard_orig_path="false"
       fuse_paths="false"
       oposite_fuse="false"
       split_items="false"
       split_open="false" />
    <inkscape:path-effect
       effect="mirror_symmetry"
       start_point="45.471575,92.823914"
       end_point="45.471575,104.68745"
       center_point="45.471575,98.75568"
       id="path-effect28125"
       is_visible="true"
       lpeversion="1.1"
       mode="vertical"
       discard_orig_path="false"
       fuse_paths="false"
       oposite_fuse="false"
       split_items="false"
       split_open="false" />
    <inkscape:path-effect
       effect="mirror_symmetry"
       start_point="41.396343,39.881841"
       end_point="41.396343,91.374853"
       center_point="41.396343,65.628347"
       id="path-effect24157"
       is_visible="true"
       lpeversion="1.1"
       mode="vertical"
       discard_orig_path="false"
       fuse_paths="false"
       oposite_fuse="false"
       split_items="false"
       split_open="false" />
    <inkscape:path-effect
       effect="mirror_symmetry"
       start_point="54.212997,35.204765"
       end_point="54.212997,84.899813"
       center_point="54.212997,60.052289"
       id="path-effect23396"
       is_visible="true"
       lpeversion="1.1"
       mode="vertical"
       discard_orig_path="false"
       fuse_paths="true"
       oposite_fuse="false"
       split_items="false"
       split_open="false" />
    <inkscape:path-effect
       effect="mirror_symmetry"
       start_point="41.396343,39.881841"
       end_point="41.396343,91.374853"
       center_point="41.396343,65.628347"
       id="path-effect15872"
       is_visible="true"
       lpeversion="1.1"
       mode="vertical"
       discard_orig_path="false"
       fuse_paths="false"
       oposite_fuse="false"
       split_items="false"
       split_open="false" />
  </defs>
  <g
     inkscape:label="Sloj 1"
     inkscape:groupmode="layer"
     id="layer1">
    <path
       style="fill:#021f40;stroke-width:4.0587"
       id="rect28043"
       width="31.525259"
       height="11.863532"
       x="4.2182126"
       y="55.076466"
       sodipodi:type="rect"
       d="m 10.149979,55.076466 h 19.661727 c 3.286198,0 5.931766,2.645567 5.931766,5.931766 0,3.286198 -2.645568,5.931766 -5.931766,5.931766 H 10.149979 c -3.2861987,0 -5.9317664,-2.645568 -5.9317664,-5.931766 0,-3.286199 2.6455677,-5.931766 5.9317664,-5.931766 z"
       ry="5.931766" />
    <path
       style="fill:#021f40;stroke-width:4.0587"
       id="path28127"
       width="124.776"
       height="11.863533"
       x="3.9717927"
       y="38.483517"
       sodipodi:type="rect"
       d="M 9.9035592,38.483517 H 122.81603 c 3.2862,0 5.93176,2.645568 5.93176,5.931766 0,3.286199 -2.64556,5.931767 -5.93176,5.931767 H 9.9035592 c -3.2861986,0 -5.9317665,-2.645568 -5.9317665,-5.931767 0,-3.286198 2.6455679,-5.931766 5.9317665,-5.931766 z"
       ry="5.9317665" />
    <path
       style="fill:#021f40;stroke-width:4.0587"
       id="path28331"
       width="31.525263"
       height="11.863532"
       x="97.45295"
       y="54.823997"
       sodipodi:type="rect"
       d="m 103.38472,54.823997 h 19.66173 c 3.28619,0 5.93176,2.645568 5.93176,5.931767 0,3.286198 -2.64557,5.931766 -5.93176,5.931766 h -19.66173 c -3.2862,0 -5.93177,-2.645568 -5.93177,-5.931766 0,-3.286199 2.64557,-5.931767 5.93177,-5.931767 z"
       ry="5.931766" />
    <path
       id="path28333"
       style="fill:#021f40;stroke-width:3.6087"
       d="m 41.429055,54.824077 v 43.075261 c 0,0 -0.347999,7.778972 2.766526,10.893502 2.897984,2.89798 9.528577,2.32031 9.528577,2.32031 h 25.61268 c 0,0 7.358528,0.52026 10.288348,-2.40956 3.093491,-3.09349 2.141827,-10.715009 2.141827,-10.715009 V 54.824077 Z M 53.402086,68.212406 H 79.79439 V 97.724817 H 53.402086 Z"
       sodipodi:nodetypes="ccsccscccccccc" />
    <rect
       style="fill:#021f40;stroke-width:1.00032"
       id="rect871"
       width="124.782"
       height="5.0979567"
       x="3.965796"
       y="45.249092"
       ry="0" />
    <rect
       style="fill:#021f40;stroke-width:0.183064"
       id="rect1854"
       width="31.525259"
       height="5.6793194"
       x="4.2182126"
       y="55.076466"
       ry="0" />
    <rect
       style="fill:#021f40;stroke-width:0.183064"
       id="rect1936"
       width="31.525259"
       height="5.6793194"
       x="97.45295"
       y="54.823997"
       ry="0" />
    <rect
       style="fill:#021f40;stroke-width:0.137487"
       id="rect833"
       width="17.78187"
       height="5.6793194"
       x="97.45295"
       y="61.008209"
       ry="0" />
    <rect
       style="fill:#021f40;stroke-width:0.137487"
       id="rect835"
       width="17.78187"
       height="5.6793194"
       x="17.961605"
       y="61.260674"
       ry="0" />
  </g>
</svg>
